<svg width="690" height="776" viewBox="0 0 690 776" fill="none" xmlns="http://www.w3.org/2000/svg">
    <g filter="url(#filter0_d)">
        <path fill-rule="evenodd"
              clip-rule="evenodd"
              d="M148.365 339.406V500.439C148.365 519.272 150.362 538.006 154.298 556.339C157.626 571.845 162.34 587.064 168.405 601.807C181.779 634.326 201.458 663.901 226.317 688.849C251.175 713.797 280.728 733.628 313.287 747.207C345.844 760.788 380.773 767.851 416.072 767.997C416.443 768 416.812 768 417.182 768C436.478 768 455.668 765.931 474.431 761.861C489.636 758.564 504.561 753.948 519.029 748.054C519.37 747.913 519.711 747.774 520.055 747.633C552.328 734.327 581.681 714.892 606.48 690.412C606.741 690.152 607.003 689.894 607.266 689.634C631.965 665.048 651.611 635.909 665.109 603.849C665.254 603.509 665.396 603.17 665.537 602.83C671.521 588.452 676.218 573.617 679.596 558.497C680.031 556.55 680.444 554.595 680.835 552.638C684.19 535.849 685.925 518.739 685.997 501.544C686 501.174 686 500.808 686 500.439C686 465.301 679.046 430.509 665.537 398.047C652.027 365.585 632.227 336.089 607.266 311.243C582.304 286.4 552.669 266.692 520.055 253.244C505.265 247.147 489.997 242.392 474.431 239.015C455.668 234.945 436.478 232.877 417.182 232.877H255.394V53.2645C255.394 23.8473 231.435 0 201.88 0H160.81C153.937 0 148.365 5.5459 148.365 12.3871V232.877H57.5146C27.9593 232.877 4 256.725 4 286.142V327.019C4 333.86 9.57194 339.406 16.4453 339.406H148.365ZM578.916 504.4C578.948 503.082 578.966 501.759 578.966 500.439C578.966 479.291 574.782 458.352 566.65 438.815C558.521 419.278 546.603 401.528 531.579 386.577C516.558 371.623 498.724 359.761 479.095 351.67C459.466 343.576 438.429 339.411 417.182 339.411V339.406H255.394V499.772L255.402 499.775C255.312 520.92 259.411 541.876 267.461 561.445C275.508 581.017 287.354 598.817 302.313 613.83C317.274 628.846 335.059 640.78 354.655 648.953C374.249 657.126 395.269 661.377 416.515 661.464C416.737 661.466 416.961 661.466 417.182 661.466C435.773 661.466 454.202 658.278 471.67 652.059C473.955 651.244 476.225 650.38 478.478 649.46C478.682 649.376 478.889 649.292 479.095 649.208C496.27 642.127 512.07 632.161 525.817 619.764C527.617 618.141 529.379 616.476 531.106 614.772C531.266 614.616 531.422 614.459 531.579 614.301C545.665 600.284 557.017 583.806 565.082 565.704C565.53 564.698 565.966 563.69 566.394 562.674C566.481 562.471 566.565 562.265 566.65 562.062C574.274 543.746 578.428 524.197 578.916 504.4Z"
              fill="white"
              fill-opacity="0.4"/>
    </g>
    <defs>
        <filter id="filter0_d" x="0" y="0" width="690" height="776" filterUnits="userSpaceOnUse" color-interpolation-filters="sRGB">
            <feFlood flood-opacity="0" result="BackgroundImageFix"/>
            <feBlend mode="normal" in="SourceGraphic" in2="effect1_dropShadow" result="shape"/>
        </filter>
    </defs>
</svg>
